Coordinates
version=1
nRows=10
nColumns=40
inDegrees=yes

Units are S.I. units (second, meters, Newtons, ...)
Angles are in degrees.

endheader
time	pelvis_tilt	pelvis_list	pelvis_rotation	pelvis_tx	pelvis_ty	pelvis_tz	hip_flexion_r	hip_adduction_r	hip_rotation_r	knee_angle_r	knee_angle_r_beta	ankle_angle_r	subtalar_angle_r	mtp_angle_r	hip_flexion_l	hip_adduction_l	hip_rotation_l	knee_angle_l	knee_angle_l_beta	ankle_angle_l	subtalar_angle_l	mtp_angle_l	lumbar_extension	lumbar_bending	lumbar_rotation	arm_flex_r	arm_add_r	arm_rot_r	elbow_flex_r	pro_sup_r	wrist_flex_r	wrist_dev_r	arm_flex_l	arm_add_l	arm_rot_l	elbow_flex_l	pro_sup_l	wrist_flex_l	wrist_dev_l
      9.79000000	     -4.53804178	     -4.09810545	      6.64260563	      0.96156946	      0.93221642	      0.44314623	     10.56188865	      3.29064919	    -15.45472678	     13.57880767	     13.57880767	      9.86871995	     -4.55325603	     -4.64539512	     38.11840469	     -6.03752113	      3.37453263	     48.54253474	     48.54253474	      8.73262710	    -18.50958417	     13.43207630	     -9.83646893	      3.39754609	      2.72056972	     24.23046567	    -20.54409015	     -5.57088147	     94.42381906	     44.42466902	      0.00000000	      0.00000000	     -0.00718300	     -7.85764762	     -3.06095243	     24.24260225	     46.61393968	      0.00000000	      0.00000000
      9.80285714	     -4.61713343	     -3.86283204	      6.70692213	      0.96148624	      0.93214308	      0.44269190	     10.06395944	      3.08021002	    -15.32769335	     13.56070533	     13.56070533	     10.32796273	     -4.61874449	     -4.68050226	     38.01315580	     -5.45242479	      3.24159352	     44.17963885	     44.17963885	      9.00470984	    -18.17290910	     13.62121094	     -9.80018286	      3.13244837	      2.69044215	     25.72932071	    -20.25015800	     -5.74976859	     96.26468945	     44.38734154	      0.00000000	      0.00000000	     -0.73825322	     -7.81041357	     -3.05923134	     23.57150582	     46.59735789	      0.00000000	      0.00000000
      9.81571429	     -4.74589993	     -3.76574482	      6.77975415	      0.96150185	      0.93176035	      0.44208043	      9.65172953	      2.95981075	    -15.48290165	     13.61772564	     13.61772564	     10.98297720	     -4.25997286	     -4.30547084	     37.80738668	     -4.98989165	      3.20288983	     39.67424311	     39.67424311	      8.45191001	    -17.74988765	     11.58457921	     -9.75013161	      3.07069699	      3.06411019	     26.54483486	    -20.33304142	     -6.21865323	     99.82773081	     44.36057295	      0.00000000	      0.00000000	     -0.96486626	     -7.57405857	     -3.17426077	     22.33315433	     46.59648086	      0.00000000	      0.00000000
      9.82857143	     -4.84543142	     -3.63391608	      6.80377884	      0.96164092	      0.93136025	      0.44143139	      9.16980762	      2.84123634	    -15.38088367	     13.59560933	     13.59560933	     11.42582794	     -4.25076439	     -4.42816932	     37.54731063	     -4.51329149	      3.17811076	     35.47385365	     35.47385365	      8.76272874	    -16.74901000	     11.86545265	     -9.63809197	      2.93422011	      2.98098186	     28.03633005	    -19.92457322	     -6.22770359	    101.50288475	     44.32253069	      0.00000000	      0.00000000	     -1.73561760	     -7.52554996	     -3.17768029	     21.94377206	     46.57946624	      0.00000000	      0.00000000
      9.84142857	     -4.92271423	     -3.60432726	      6.85229936	      0.96191923	      0.93081211	      0.44064293	      8.65873291	      2.80891053	    -15.47808521	     13.57249977	     13.57249977	     11.90201114	     -4.04806719	     -4.53202358	     37.25219843	     -4.14434355	      3.21615623	     31.56536023	     31.56536023	      8.97875310	    -15.48895468	     11.89424359	     -9.55922778	      2.96081451	      2.82295123	     29.40686730	    -19.45126273	     -6.07443851	    103.71167360	     44.26608702	      0.00000000	      0.00000000	     -2.49050763	     -7.39854568	     -3.20112942	     21.72400208	     46.56357783	      0.00000000	      0.00000000
      9.85428571	     -4.95049850	     -3.59302631	      6.86407403	      0.96239205	      0.93022568	      0.43984759	      8.06155085	      2.80239299	    -15.57376718	     13.50711596	     13.50711596	     12.40973816	     -3.69686942	     -4.58769056	     36.91325930	     -3.87267883	      3.12778550	     28.09978704	     28.09978704	      9.16555412	    -14.00429136	     11.83626622	     -9.54615051	      2.97873894	      2.80279360	     30.57008200	    -19.05078143	     -5.88136239	    105.99097952	     44.20897306	      0.00000000	      0.00000000	     -3.23138294	     -7.31731111	     -3.26492370	     21.71774622	     46.55276279	      0.00000000	      0.00000000
      9.86714286	     -5.10673292	     -3.71353391	      6.84845154	      0.96288144	      0.92932264	      0.43904366	      7.62879337	      2.93822395	    -15.55668537	     13.44718554	     13.44718554	     12.83601575	     -3.58629508	     -4.69824186	     36.82400949	     -3.73879901	      3.04093284	     25.26108372	     25.26108372	      9.34065866	    -12.64197476	     12.11002837	     -9.26990533	      3.15059711	      2.98990088	     31.72615330	    -18.93064881	     -5.90032948	    107.15397444	     44.18310531	      0.00000000	      0.00000000	     -3.74376603	     -7.18215492	     -3.28677626	     21.65587398	     46.54358820	      0.00000000	      0.00000000
      9.88000000	     -4.98403871	     -3.64489815	      6.79689385	      0.96389958	      0.92884405	      0.43816173	      6.74103723	      2.88799845	    -15.73823626	     13.25224562	     13.25224562	     13.51964602	     -2.82108588	     -4.42669427	     36.37311784	     -3.57737452	      2.52552777	     22.97349924	     22.97349924	      9.46382195	    -11.11285026	     11.98003192	     -9.41293163	      3.10411901	      3.09045997	     32.39881829	    -18.57734630	     -5.63529394	    110.14351404	     44.12698290	      0.00000000	      0.00000000	     -4.52827735	     -7.19326087	     -3.51301356	     22.47390100	     46.54456454	      0.00000000	      0.00000000
      9.89285714	     -4.96613624	     -3.65880715	      6.73148478	      0.96493382	      0.92810887	      0.43723030	      5.98550122	      2.95288604	    -15.65803557	     13.03884681	     13.03884681	     14.00686272	     -2.60397903	     -4.42974356	     36.14089832	     -3.45947404	      2.13788680	     21.40952998	     21.40952998	      9.50636442	    -10.22028873	     12.18292168	     -9.31439082	      3.15018819	      3.11508245	     33.29270871	    -18.04597750	     -5.50040711	    111.46612762	     44.09698276	      0.00000000	      0.00000000	     -5.02663415	     -7.12028072	     -3.54191331	     22.47280464	     46.53316330	      0.00000000	      0.00000000
      9.90571429	     -5.02718799	     -3.73331530	      6.61836271	      0.96608589	      0.92715624	      0.43633609	      5.31845419	      3.06970813	    -15.56368429	     12.82911876	     12.82911876	     14.45357759	     -2.37495055	     -4.46323630	     36.06119506	     -3.43258349	      1.74145016	     20.53599401	     20.53599401	      9.42743690	     -9.76135408	     12.30956234	     -9.06638236	      3.23488523	      3.29777420	     34.10697536	    -17.68950106	     -5.37621895	    112.46677101	     44.07154631	      0.00000000	      0.00000000	     -5.37345447	     -7.02245184	     -3.56719410	     22.52962418	     46.52602708	      0.00000000	      0.00000000
